<svg id="Ebene_1" data-name="Ebene 1" xmlns="http://www.w3.org/2000/svg" viewBox="0 0 97.72 92.39" fill="#F5B63E"><path d="M39,72.72a3.16,3.16,0,0,0,4.31.11L70.81,48.29a2.81,2.81,0,0,0,1-2.1,2.84,2.84,0,0,0-1-2.1L43.32,19.55a3.19,3.19,0,0,0-4.31.12,2.77,2.77,0,0,0,.12,4.08L64.26,46.19,39.13,68.63A2.78,2.78,0,0,0,39,72.72Z"/><path d="M48.86,92.39A50,50,0,0,0,83.41,78.86a44.44,44.44,0,0,0,0-65.33A50,50,0,0,0,48.86,0,50,50,0,0,0,14.31,13.53a44.44,44.44,0,0,0,0,65.33A50,50,0,0,0,48.86,92.39ZM18.63,17.61A43.77,43.77,0,0,1,48.86,5.77,43.76,43.76,0,0,1,79.09,17.61a38.86,38.86,0,0,1,0,57.16A43.71,43.71,0,0,1,48.86,86.61,43.73,43.73,0,0,1,18.63,74.77a38.88,38.88,0,0,1,0-57.16Z"/></svg>